<svg xmlns="http://www.w3.org/2000/svg" width="172" height="42" viewBox="0 0 344 84" fill="#fff"><circle cx="42" cy="42" r="42" fill="#16a34a"/><path d="M42 16.1H16.1V68H68V42H63v21H21V21h21v-4.9Z"/><path d="M24 24h10v10H24V24Zm0 13h10v10H24V37Zm13 0h10v10H37V37ZM24 50h10v10H24V50Zm13 0h10v10H37V50Zm13 0h10v10H50V50Zm-3-39h6.2v6.2H47V11Zm14 6h6.2v6.2H61V17ZM42 27h3.8v3.8H42V27Zm10-5h3.8v3.8H52V22Zm15 8h3.8v3.8H67V30Zm-17-1h10v10H50V29Z"/><path fill="#052e16" d="M109.8 60V29.5H98.6v-4.8h27.6v4.8h-11.1V60h-5.3ZM133.3 60.3c-1.2 0-2.4-.2-3.5-.5a9 9 0 0 1-3-1.4 7.2 7.2 0 0 1-2.8-6c0-1.6.3-2.9.9-4 .6-1 1.4-1.8 2.5-2.4 1-.6 2.2-1 3.5-1.2s2.8-.4 4.3-.4h6.4a9 9 0 0 0-.6-3.4c-.4-1-1-1.8-1.9-2.3-.8-.6-2-.9-3.3-.9-.9 0-1.7.1-2.4.3-.8.2-1.4.5-2 .9a3 3 0 0 0-1 1.6H125c.2-1.3.6-2.4 1.3-3.3.7-.9 1.6-1.7 2.6-2.3 1-.6 2.2-1 3.3-1.3 1.2-.3 2.4-.4 3.7-.4 3.8 0 6.5 1.1 8.2 3.3 1.7 2.2 2.5 5.3 2.5 9.1V60h-4.4l-.2-3.4c-.8 1-1.7 1.9-2.8 2.4-1 .5-2 .9-3 1l-3 .3Zm.8-4.3c1.5 0 2.8-.3 4-.8a6 6 0 0 0 2.6-2.3c.6-1 1-2.1 1-3.4v-1.2h-4.8a51.9 51.9 0 0 0-5.3.5c-.8.2-1.4.6-1.8 1.1-.5.5-.7 1.2-.7 2.1 0 1 .3 1.7.7 2.2.5.6 1.1 1 1.9 1.3.7.3 1.5.4 2.4.4ZM165.7 60.3c-1.1 0-2.2-.1-3.1-.3a9.4 9.4 0 0 1-5-3.1l-.2 3.1h-5V24.6h5.1v12.6c1-1.3 2.2-2.2 3.8-2.9 1.5-.7 3.2-1 4.8-1 2.7 0 4.8.6 6.5 1.8 1.7 1.2 3 2.8 3.8 4.8.8 2 1.2 4.3 1.2 6.9 0 2.5-.4 4.8-1.3 6.8-.8 2-2.1 3.7-3.9 4.9s-4 1.8-6.7 1.8Zm-.6-4.5c1.9 0 3.3-.5 4.4-1.3a7 7 0 0 0 2.3-3.3 13.5 13.5 0 0 0 0-8.9 6.7 6.7 0 0 0-2.4-3.1c-1-.8-2.5-1.2-4.3-1.2-1.7 0-3 .4-4.2 1.3-1.1.9-2 2-2.5 3.4-.6 1.3-1 2.7-1 4.2s.3 3 .9 4.3a7.1 7.1 0 0 0 2.4 3.3c1.2.8 2.6 1.3 4.4 1.3ZM182.4 60V24.6h5.2V60h-5.2ZM205.1 60.3c-2.7 0-5-.6-7-1.7a10.8 10.8 0 0 1-4.2-4.7c-.9-2-1.4-4.4-1.4-7 0-2.7.5-5 1.5-7s2.4-3.7 4.3-4.9c1.9-1.1 4.2-1.7 6.8-1.7 2 0 3.8.4 5.3 1.1s2.8 1.8 3.7 3c1 1.3 1.8 2.7 2.2 4.3a14.6 14.6 0 0 1 .6 5.8l-.1 1.1h-19c0 1.3.4 2.5 1 3.6.5 1.1 1.4 2 2.4 2.7 1 .6 2.4 1 4 1 .8 0 1.7-.2 2.5-.4s1.5-.5 2.2-1c.6-.5 1.1-1.1 1.4-1.9h5.2a9.3 9.3 0 0 1-6.4 6.9c-1.6.5-3.2.8-5 .8Zm-7.3-15.8h14c0-1.3-.3-2.5-.9-3.5-.5-1-1.3-1.8-2.3-2.4a7 7 0 0 0-3.6-.9c-1.6 0-2.8.4-3.9 1-1 .6-1.8 1.5-2.3 2.5-.6 1-.9 2.1-1 3.3ZM222.5 60V24.6h12.7c2.7 0 5 .5 6.8 1.3 2 .8 3.4 2.1 4.5 3.9 1 1.7 1.5 4 1.5 6.7s-.6 5-1.8 6.7-2.7 3.2-4.8 4.1c-2 1-4.3 1.4-7 1.4h-6.6V60h-5.3Zm5.3-16.1h6.5c2.5 0 4.5-.6 6-1.8 1.6-1.2 2.4-3 2.4-5.7 0-2.3-.7-4-2-5.2-1.2-1.1-3.1-1.7-5.7-1.7h-7.2v14.4ZM252.2 60V33.6h4.8l.3 3.8a8.6 8.6 0 0 1 5.1-3.7c1-.3 2.1-.4 3.3-.4h1.6v5h-1.6c-2 0-3.5.3-4.8 1.1s-2.1 1.8-2.7 3.2c-.6 1.4-.9 3-.9 4.7V60h-5.1ZM281.6 60.3c-2.8 0-5.1-.6-7-1.7a10.8 10.8 0 0 1-4.2-4.7c-1-2-1.4-4.4-1.4-7 0-2.7.5-5 1.4-7 1-2 2.5-3.7 4.3-4.9 2-1.1 4.2-1.7 6.9-1.7 2 0 3.8.4 5.3 1.1s2.7 1.8 3.7 3 1.7 2.7 2.2 4.3a14 14 0 0 1 .5 5.8v1.1h-19.1c0 1.3.4 2.5 1 3.6s1.4 2 2.5 2.7c1 .6 2.4 1 4 1 .8 0 1.6-.2 2.4-.4s1.6-.5 2.2-1c.7-.5 1.2-1.1 1.4-1.9h5.2a9.3 9.3 0 0 1-6.4 6.9c-1.5.5-3.2.8-5 .8Zm-7.3-15.8h14c0-1.3-.4-2.5-1-3.5s-1.3-1.8-2.3-2.4a7 7 0 0 0-3.6-.9c-1.5 0-2.8.4-3.8 1s-1.8 1.5-2.4 2.5c-.5 1-.8 2.1-1 3.3ZM307.8 60.3l-3.7-.3c-1.2-.3-2.4-.7-3.4-1.3-1.1-.6-2-1.4-2.7-2.4-.8-1-1.2-2.3-1.4-3.8h5.2c.3.8.8 1.4 1.4 2s1.5.8 2.3 1a9.5 9.5 0 0 0 4.2.3c.7 0 1.3-.2 1.8-.4.6-.3 1-.6 1.4-1 .4-.5.6-1.1.6-1.9 0-.6-.2-1.1-.5-1.5s-.8-.7-1.3-1-1.2-.4-2-.5l-4.8-1a13 13 0 0 1-4.5-1.7c-.5-.3-1-.6-1.3-1l-1-1.3c-.2-.5-.4-1-.5-1.7a8 8 0 0 1 .6-5.3c.5-1 1.3-1.8 2.3-2.4 1-.6 2-1 3.3-1.4 1.2-.3 2.5-.4 3.9-.4 1.7 0 3.3.3 4.8.9s2.6 1.3 3.5 2.5c1 1 1.5 2.4 1.7 4.1h-4.9c-.2-.9-.8-1.6-1.7-2.2a7 7 0 0 0-3.6-.8l-1.6.1c-.6 0-1.1.2-1.7.4-.5.3-1 .6-1.3 1-.3.4-.5 1-.5 1.7 0 .6.2 1.1.5 1.6.3.4.8.7 1.4 1l2.1.7 3.7.7c1.3.2 2.4.5 3.2.8 1.1.3 2 .7 2.8 1.3.8.5 1.4 1.2 1.8 2.1.5.9.7 2 .7 3.1 0 1.7-.3 3-1 4s-1.5 1.8-2.5 2.4c-1 .6-2.2 1-3.5 1.3-1.3.2-2.5.3-3.8.3ZM333.1 60.3l-3.7-.3c-1.2-.3-2.4-.7-3.4-1.3-1.1-.6-2-1.4-2.7-2.4s-1.2-2.3-1.4-3.8h5.2c.3.8.8 1.4 1.4 2s1.5.8 2.3 1a9.5 9.5 0 0 0 4.2.3c.7 0 1.3-.2 1.8-.4.6-.3 1-.6 1.4-1 .4-.5.6-1.1.6-1.9 0-.6-.2-1.1-.5-1.5s-.8-.7-1.3-1l-2-.5-4.8-1a13 13 0 0 1-4.5-1.7c-.5-.3-1-.6-1.3-1l-1-1.3c-.2-.5-.4-1-.5-1.7a8 8 0 0 1-.2-1.8 7 7 0 0 1 .8-3.5c.5-1 1.3-1.8 2.3-2.4 1-.6 2-1 3.3-1.4 1.2-.3 2.5-.4 3.9-.4 1.7 0 3.3.3 4.8.9 1.4.5 2.6 1.3 3.5 2.5 1 1 1.5 2.4 1.7 4.1H338c-.2-.9-.8-1.6-1.7-2.2s-2.1-.8-3.6-.8l-1.6.1c-.6 0-1.1.2-1.7.4-.5.3-1 .6-1.3 1-.3.4-.5 1-.5 1.7 0 .6.2 1.1.5 1.6.3.4.8.7 1.4 1l2.1.7 3.7.7c1.3.2 2.4.5 3.2.8 1.1.3 2 .7 2.8 1.3.8.5 1.4 1.2 1.8 2.1.5.9.7 2 .7 3.1 0 1.7-.3 3-1 4s-1.5 1.8-2.5 2.4c-1 .6-2.2 1-3.5 1.3-1.3.2-2.5.3-3.8.3Z"/></svg>